<?xml version="1.0"?>
<svg xmlns="http://www.w3.org/2000/svg" xmlns:xlink="http://www.w3.org/1999/xlink" xmlns:svgjs="http://svgjs.com/svgjs" version="1.1" width="512" height="512" x="0" y="0" viewBox="0 0 64 64" style="enable-background:new 0 0 512 512" xml:space="preserve" class=""><g><g xmlns="http://www.w3.org/2000/svg" id="Outline"><g><path d="M33,8a1,1,0,0,0,0-2,3,3,0,1,0,3,3,1,1,0,0,0-2,0,1,1,0,1,1-1-1Z" fill="#ffffff" data-original="#000000" style="" class=""/><path d="M24,16a2,2,0,0,1-2-2,1,1,0,0,0-2,0,4,4,0,1,0,4-4,1,1,0,0,0,0,2,2,2,0,0,1,0,4Z" fill="#ffffff" data-original="#000000" style="" class=""/><circle cx="21" cy="24" r="1" fill="#ffffff" data-original="#000000" style="" class=""/><circle cx="31" cy="19" r="1" fill="#ffffff" data-original="#000000" style="" class=""/><path d="M42,38a5.94,5.94,0,0,0-.064-.827,18.949,18.949,0,0,0,5.735-26.894,4.986,4.986,0,0,1,8.049,2.083,1,1,0,0,0,1.031.668L57,13a3,3,0,0,1,0,6H53.949a1,1,0,0,0,0,2H57a5,5,0,0,0,.324-9.989A6.98,6.98,0,0,0,46.449,8.694a18.982,18.982,0,0,0-33.1,15.9,1,1,0,0,0,1.963-.381,17,17,0,1,1,26,11A6,6,0,0,0,36,32a5.835,5.835,0,0,0-1.825.3,7.051,7.051,0,0,0-6.6-2.148,8.99,8.99,0,0,0-16.06,1.872,5.95,5.95,0,0,0-5.164,4A4,4,0,1,0,6,44h7a1,1,0,0,0,0-2H6a2,2,0,1,1,.717-3.859,1,1,0,0,0,1.35-.774A3.967,3.967,0,0,1,12,34H12a2.026,2.026,0,0,0,.209.021.96.96,0,0,0,1.014-.753,6.991,6.991,0,0,1,12.984-1.5,1,1,0,0,0,1.2.487,5.039,5.039,0,0,1,5.639,1.819,1,1,0,0,0,1.24.318A3.994,3.994,0,1,1,36,42H17a1,1,0,0,0,0,2H36A6.006,6.006,0,0,0,42,38Z" fill="#ffffff" data-original="#000000" style="" class=""/><path d="M57.6,55.06a4.919,4.919,0,0,0-5.245-3.012,7,7,0,0,0-13.294,2.063,3.97,3.97,0,0,0-2.542,1.934A2.941,2.941,0,0,0,36,56a3,3,0,0,0,0,6h8a1,1,0,0,0,0-2H36a1,1,0,0,1,0-2,.986.986,0,0,1,.542.163,1,1,0,0,0,1.517-.615A1.985,1.985,0,0,1,40,56a1,1,0,0,0,1-1,5,5,0,0,1,9.777-1.479,1,1,0,0,0,1.275.651A2.93,2.93,0,0,1,55.9,56.261a1.013,1.013,0,0,0,1.032.751L57,57a1,1,0,0,1,1,1,1.015,1.015,0,0,1-1.528.844,1,1,0,0,0-1.269.173A2.963,2.963,0,0,1,53,60H48a1,1,0,0,0,0,2h5a4.99,4.99,0,0,0,3.144-1.127A2.948,2.948,0,0,0,57,61a3,3,0,0,0,.595-5.94Z" fill="#ffffff" data-original="#000000" style="" class=""/><path d="M60.5,47H60v-.5a1,1,0,0,0-2,0V47h-.5a1,1,0,0,0,0,2H58v.5a1,1,0,0,0,2,0V49h.5a1,1,0,0,0,0-2Z" fill="#ffffff" data-original="#000000" style="" class=""/><path d="M50,42.5a1,1,0,0,0,1-1V41h.5a1,1,0,0,0,0-2H51v-.5a1,1,0,0,0-2,0V39h-.5a1,1,0,0,0,0,2H49v.5A1,1,0,0,0,50,42.5Z" fill="#ffffff" data-original="#000000" style="" class=""/><path d="M31.5,50H31v-.5a1,1,0,0,0-2,0V50h-.5a1,1,0,0,0,0,2H29v.5a1,1,0,0,0,2,0V52h.5a1,1,0,0,0,0-2Z" fill="#ffffff" data-original="#000000" style="" class=""/><path d="M6.5,11H7v.5a1,1,0,0,0,2,0V11h.5a1,1,0,0,0,0-2H9V8.5a1,1,0,0,0-2,0V9H6.5a1,1,0,0,0,0,2Z" fill="#ffffff" data-original="#000000" style="" class=""/><path d="M4.5,28H5v.5a1,1,0,0,0,2,0V28h.5a1,1,0,0,0,0-2H7v-.5a1,1,0,0,0-2,0V26H4.5a1,1,0,0,0,0,2Z" fill="#ffffff" data-original="#000000" style="" class=""/></g></g></g></svg>
