<?xml version="1.0"?>
<svg xmlns="http://www.w3.org/2000/svg" xmlns:xlink="http://www.w3.org/1999/xlink" xmlns:svgjs="http://svgjs.com/svgjs" version="1.1" width="512" height="512" x="0" y="0" viewBox="0 0 419.3106 419" style="enable-background:new 0 0 512 512" xml:space="preserve" class=""><g><path xmlns="http://www.w3.org/2000/svg" d="m45.484375 226.519531c-3.773437 0-6.828125-3.054687-6.828125-6.824219 0-26.183593 21.300781-47.476562 47.480469-47.476562 3.773437 0 6.828125 3.054688 6.828125 6.824219s-3.054688 6.828125-6.828125 6.828125c-18.652344 0-33.824219 15.171875-33.824219 33.824218 0 3.769532-3.054688 6.824219-6.828125 6.824219zm0 0" fill="#ffffff" data-original="#000000" style="" class=""/><path xmlns="http://www.w3.org/2000/svg" d="m233.964844 308.046875c-.898438 0-1.8125-.179687-2.6875-.558594-3.464844-1.480469-5.074219-5.496093-3.585938-8.960937l18.488282-43.125c1.476562-3.464844 5.519531-5.0625 8.957031-3.585938 3.46875 1.484375 5.074219 5.5 3.589843 8.964844l-18.488281 43.125c-1.105469 2.585938-3.625 4.140625-6.273437 4.140625zm0 0" fill="#ffffff" data-original="#000000" style="" class=""/><path xmlns="http://www.w3.org/2000/svg" d="m147.726562 277.242188c-.898437 0-1.8125-.179688-2.6875-.554688-3.464843-1.484375-5.074218-5.5-3.585937-8.964844l18.480469-43.121094c1.484375-3.464843 5.511718-5.066406 8.957031-3.582031 3.46875 1.480469 5.074219 5.496094 3.589844 8.960938l-18.480469 43.121093c-1.109375 2.585938-3.628906 4.140626-6.273438 4.140626zm0 0" fill="#ffffff" data-original="#000000" style="" class=""/><path xmlns="http://www.w3.org/2000/svg" d="m172.363281 332.6875c-.898437 0-1.8125-.179688-2.683593-.558594-3.46875-1.480468-5.074219-5.496094-3.589844-8.960937l18.480468-43.125c1.480469-3.464844 5.511719-5.074219 8.960938-3.582031 3.464844 1.480468 5.074219 5.496093 3.585938 8.960937l-18.480469 43.125c-1.105469 2.585937-3.625 4.140625-6.273438 4.140625zm0 0" fill="#ffffff" data-original="#000000" style="" class=""/><path xmlns="http://www.w3.org/2000/svg" d="m197.003906 381.96875c-.898437 0-1.8125-.175781-2.683594-.554688-3.46875-1.484374-5.074218-5.496093-3.589843-8.964843l18.480469-43.121094c1.480468-3.46875 5.519531-5.070313 8.960937-3.585937 3.464844 1.484374 5.074219 5.496093 3.585937 8.964843l-18.476562 43.121094c-1.109375 2.589844-3.628906 4.140625-6.277344 4.140625zm0 0" fill="#ffffff" data-original="#000000" style="" class=""/><path xmlns="http://www.w3.org/2000/svg" d="m141.566406 406.609375c-.902344 0-1.8125-.179687-2.6875-.554687-3.46875-1.484376-5.074218-5.5-3.589844-8.964844l18.480469-43.121094c1.488281-3.464844 5.511719-5.070312 8.960938-3.582031 3.464843 1.480469 5.074219 5.496093 3.585937 8.960937l-18.476562 43.121094c-1.109375 2.585938-3.628906 4.140625-6.273438 4.140625zm0 0" fill="#ffffff" data-original="#000000" style="" class=""/><path xmlns="http://www.w3.org/2000/svg" d="m110.757812 345.007812c-.898437 0-1.8125-.179687-2.6875-.558593-3.464843-1.480469-5.074218-5.496094-3.585937-8.960938l18.484375-43.121093c1.480469-3.464844 5.519531-5.074219 8.960938-3.585938 3.46875 1.484375 5.074218 5.5 3.589843 8.964844l-18.488281 43.121094c-1.105469 2.585937-3.625 4.140624-6.273438 4.140624zm0 0" fill="#ffffff" data-original="#000000" style="" class=""/><path xmlns="http://www.w3.org/2000/svg" d="m295.589844 293.679688h-18.539063c-3.773437 0-6.824219-3.058594-6.824219-6.828126 0-3.769531 3.050782-6.824218 6.824219-6.824218h18.539063c26.359375 0 47.808594-21.125 47.808594-47.089844 0-21.898438-15.113282-40.722656-36.753907-45.773438-3.285156-.765624-5.519531-3.820312-5.253906-7.183593.230469-2.863281.382813-5.742188.382813-8.667969 0-59.941406-49.453126-108.710938-110.242188-108.710938-52.238281 0-97.671875 36.585938-108.03125 86.992188-.65625 3.167969-3.433594 5.441406-6.660156 5.453125-34.839844.121094-63.1875 28.152344-63.1875 62.484375 0 34.457031 28.449218 62.496094 63.414062 62.496094h15.699219c3.773437 0 6.828125 3.054687 6.828125 6.824218 0 3.769532-3.054688 6.828126-6.828125 6.828126h-15.699219c-42.492187 0-77.066406-34.160157-77.066406-76.148438 0-40.019531 31.527344-73.011719 71.328125-75.929688 13.636719-54.003906 63.339844-92.652343 120.207031-92.652343 68.3125 0 123.894532 54.894531 123.894532 122.363281 0 1.386719-.027344 2.761719-.082032 4.132812 24.828125 8.269532 41.707032 31.148438 41.707032 57.492188-.003907 33.492188-27.574219 60.742188-61.464844 60.742188zm0 0" fill="#ffffff" data-original="#000000" style="" class=""/><path xmlns="http://www.w3.org/2000/svg" d="m336.230469 167.742188c-10.785157 0-21.539063-2.097657-31.683594-6.238282-3.488281-1.425781-5.167969-5.40625-3.738281-8.902344 1.425781-3.492187 5.410156-5.160156 8.898437-3.738281 12.269531 5.007813 25.59375 6.457031 38.519531 4.183594 18.726563-3.289063 34.664063-13.683594 45.078126-28.332031-6.839844 4.144531-14.453126 7.050781-22.511719 8.464844-17.21875 3.019531-34.59375-.84375-48.914063-10.894532-14.3125-10.042968-23.863281-25.0625-26.886718-42.285156-4.492188-25.640625 6.660156-50.46875 26.554687-64.667969-30.152344 6.398438-52.730469 31.902344-55.265625 62.851563-.308594 3.761718-3.546875 6.574218-7.367188 6.25-3.753906-.308594-6.550781-3.605469-6.246093-7.359375 3.113281-37.976563 31.472656-69.085938 68.96875-75.660157 12.679687-2.226562 25.453125-1.4999995 37.964843 2.171876 3.21875.941406 5.273438 4.085937 4.855469 7.414062-.429687 3.328125-3.207031 5.851562-6.5625 5.957031-2.847656.09375-5.1875.3125-7.359375.691407-28.140625 4.9375-47.027344 31.847656-42.085937 59.988281 2.386719 13.632812 9.945312 25.519531 21.273437 33.46875 11.339844 7.953125 25.105469 11.019531 38.714844 8.625 16.511719-2.894531 30.671875-13.714844 37.871094-28.941407 1.433594-3.035156 4.867187-4.59375 8.085937-3.636718 3.226563.945312 5.28125 4.089844 4.863281 7.417968-4.675781 36.632813-32.269531 65.535157-68.667968 71.921876-4.765625.835937-9.566406 1.25-14.359375 1.25zm0 0" fill="#ffffff" data-original="#000000" style="" class=""/></g></svg>
